<?xml version="1.0" standalone="no"?>
<!DOCTYPE svg PUBLIC "-//W3C//DTD SVG 20010904//EN"
 "http://www.w3.org/TR/2001/REC-SVG-20010904/DTD/svg10.dtd">
<svg version="1.0" xmlns="http://www.w3.org/2000/svg"
 width="217.000000pt" height="217.000000pt" viewBox="0 0 217.000000 217.000000"
 preserveAspectRatio="xMidYMid meet">
<metadata>
Created by potrace 1.11, written by Peter Selinger 2001-2013
</metadata>
<g transform="translate(0.000000,217.000000) scale(0.100000,-0.100000)"
fill="#000000" stroke="none">
<path d="M660 1375 l0 -185 35 0 35 0 0 86 c0 101 9 124 50 124 41 0 50 -23
50 -124 l0 -86 30 0 30 0 0 109 c0 126 -10 148 -73 158 -30 5 -45 1 -68 -16
l-29 -22 6 71 7 70 -37 0 -36 0 0 -185z"/>
<path d="M121 1378 c-30 -90 -56 -169 -59 -176 -3 -10 5 -13 34 -10 35 3 39 6
47 41 l9 38 66 -3 c65 -3 65 -3 77 -38 10 -30 16 -35 48 -38 20 -2 37 -2 37 0
0 2 -26 80 -59 173 l-59 170 -43 3 -44 3 -54 -163z m122 32 c9 -32 17 -64 17
-70 0 -5 -20 -10 -44 -10 l-43 0 20 70 c12 39 23 70 27 70 3 0 13 -27 23 -60z"/>
<path d="M455 1450 c-33 -13 -47 -36 -43 -72 3 -29 10 -37 60 -63 40 -20 58
-36 58 -49 0 -17 -6 -18 -60 -13 l-60 5 0 -28 c0 -26 4 -29 46 -36 55 -8 120
9 134 36 26 50 7 83 -70 123 -24 12 -41 27 -39 32 2 6 25 9 50 9 40 -1 48 2
58 22 9 21 7 24 -27 34 -43 12 -79 12 -107 0z"/>
<path d="M850 1039 l0 -70 -26 20 c-80 63 -165 -23 -147 -149 12 -85 87 -126
146 -80 l26 20 6 -20 c4 -13 15 -20 31 -20 l24 0 0 185 0 185 -30 0 -30 0 0
-71z m-16 -105 c18 -18 21 -85 6 -115 -15 -27 -64 -25 -84 3 -34 48 -9 128 39
128 13 0 31 -7 39 -16z"/>
<path d="M100 916 l0 -176 35 0 35 0 0 65 c0 58 2 65 20 65 13 0 33 -21 61
-65 37 -59 44 -65 75 -65 19 0 34 2 34 5 0 3 -20 36 -45 72 l-44 66 29 34 c32
36 38 74 19 116 -17 37 -49 50 -136 55 l-83 5 0 -177z m148 102 c7 -7 12 -24
12 -40 0 -30 -23 -48 -64 -48 -24 0 -26 3 -26 50 0 50 0 50 33 50 18 0 38 -5
45 -12z"/>
<path d="M464 1001 c-80 -35 -94 -180 -23 -234 57 -42 169 -31 169 17 0 23 -2
24 -59 19 -53 -5 -60 -3 -75 18 -9 13 -16 27 -16 31 0 5 39 8 86 8 l87 0 -6
46 c-7 62 -39 95 -98 100 -24 2 -54 0 -65 -5z m94 -68 c14 -23 14 -23 -42 -23
-58 0 -60 3 -33 38 15 19 58 10 75 -15z"/>
<path d="M990 875 l0 -135 35 0 35 0 0 88 c0 102 11 125 55 120 l30 -3 3 -102
3 -103 33 0 34 0 4 95 c3 102 10 115 56 115 31 0 42 -34 42 -131 l0 -79 30 0
30 0 0 110 c0 106 -1 112 -26 137 -21 21 -32 25 -66 20 -22 -3 -47 -12 -57
-21 -16 -14 -19 -14 -34 2 -24 23 -98 23 -125 -1 -19 -17 -20 -17 -25 3 -3 14
-13 20 -31 20 l-26 0 0 -135z"/>
<path d="M1498 999 c-30 -12 -33 -16 -18 -39 6 -10 26 -15 62 -15 40 0 53 -4
56 -16 2 -13 -8 -17 -54 -21 -47 -4 -62 -10 -82 -33 -19 -23 -23 -36 -18 -64
8 -50 40 -74 89 -68 21 3 47 13 58 23 19 17 20 17 26 -4 3 -15 13 -22 29 -22
24 0 24 1 24 104 0 95 -2 107 -23 132 -18 21 -34 27 -73 30 -27 2 -61 -1 -76
-7z m102 -153 c0 -31 -22 -48 -57 -44 -57 6 -36 68 23 68 29 0 34 -3 34 -24z"/>
<path d="M1750 875 l0 -135 29 0 29 0 4 89 c5 99 15 121 59 121 39 0 49 -28
49 -131 l0 -79 30 0 30 0 0 109 c0 126 -10 148 -73 158 -30 5 -45 1 -68 -16
l-30 -23 -6 21 c-3 14 -13 21 -29 21 l-24 0 0 -135z"/>
</g>
</svg>
